# xmcd CD database file
#
# Track frame offsets:
#	150
#	6245
#	19690
#	33947
#	49940
#	90502
#	102997
#
# Disc length: 1629 seconds
#
# Revision: 0
# Processed by: cddbd v1.5.1PL0 Copyright (c) Steve Scherf et al.
# Submitted via: CDex 1.51
#
DISCID=4a065b07
DTITLE=Hiroya - Distance
DYEAR=1995
DGENRE=Heavy Metal
TTITLE0=Opening
TTITLE1=Distance
TTITLE2=Interview
TTITLE3=Eyes Of Winner
TTITLE4=Interview
TTITLE5=Get Lead
TTITLE6=Distance-Girl
EXTD=YEAR: 1995
EXTT0=
EXTT1=
EXTT2=
EXTT3=
EXTT4=
EXTT5=
EXTT6=
PLAYORDER=
